Coordinates
version=1
nRows=9
nColumns=26
inDegrees=yes

Units are S.I. units (second, meters, Newtons, ...)
Angles are in degrees.

endheader
time	pelvis_tilt	pelvis_list	pelvis_rotation	pelvis_tx	pelvis_ty	pelvis_tz	hip_flexion_r	hip_adduction_r	hip_rotation_r	knee_angle_r	knee_angle_r_beta	ankle_angle_r	subtalar_angle_r	mtp_angle_r	hip_flexion_l	hip_adduction_l	hip_rotation_l	knee_angle_l	knee_angle_l_beta	ankle_angle_l	subtalar_angle_l	mtp_angle_l	lumbar_extension	lumbar_bending	lumbar_rotation
     84.38423775	    -13.88493454	      0.22567496	      7.32221587	      0.39848530	      1.00271416	      0.21539375	      5.26872221	      1.83965916	     -0.90227039	     68.14262504	     68.14262504	    -15.48382468	    -18.05605243	      0.00000000	     37.05885722	      5.68812514	     -0.30565953	     25.29878457	     25.29878457	     -0.13814389	     -7.62585843	      0.00000000	      0.27459791	     -4.16260751	     -0.95697769
     84.39423775	    -14.05737041	      1.10568982	      7.52422414	      0.39540140	      0.99426334	      0.21361029	      7.97812971	      0.32534327	     -1.20905056	     73.30857421	     73.30857421	    -14.45247154	    -18.96726512	      0.00000000	     38.49727269	      6.97469672	      0.10989252	     30.54629467	     30.54629467	      1.83298389	     -9.99815694	      0.00000000	     -0.09111637	     -5.13285446	     -1.89240651
     84.40423775	    -14.16205993	      1.56183882	      7.46652163	      0.39234414	      0.98605096	      0.21267813	     10.78423222	     -0.52201643	     -1.01262757	     78.08092654	     78.08092654	    -13.52961935	    -19.84390264	      0.00000000	     39.92386317	      7.55512015	      0.17331081	     35.99080336	     35.99080336	      4.22972043	    -12.03360653	      0.00000000	     -0.42843760	     -5.62712280	     -2.53612274
     84.41423775	    -14.15701173	      2.05471577	      7.22749954	      0.38959855	      0.97883144	      0.21207586	     13.56656298	     -1.28673167	     -0.46125412	     82.41027036	     82.41027036	    -12.67416843	    -20.39870576	      0.00000000	     40.61764655	      7.97123618	      0.24063856	     40.37605553	     40.37605553	      6.55390741	    -13.13065591	      0.00000000	     -0.83308688	     -6.15734262	     -3.02939050
     84.42423775	    -14.08160592	      2.66671601	      6.72858910	      0.38706356	      0.97269728	      0.21160719	     16.38811069	     -2.10570546	      0.45121522	     86.33628422	     86.33628422	    -11.52852448	    -20.40974580	      0.00000000	     40.50982748	      8.27838673	      0.00910119	     43.58234374	     43.58234374	      9.18627404	    -13.33615340	      0.00000000	     -1.27324116	     -6.77142436	     -3.38197802
     84.43423775	    -14.07510759	      3.44532767	      6.00887103	      0.38449240	      0.96751462	      0.21122899	     19.41677702	     -2.99994076	      1.73947844	     89.84907957	     89.84907957	    -10.39309210	    -20.04370371	      0.00000000	     39.81590098	      8.64167932	     -0.55070232	     45.61864630	     45.61864630	     11.73164495	    -13.48399360	      0.00000000	     -1.59374213	     -7.56756355	     -3.65074692
     84.44423775	    -14.21472635	      4.21739457	      5.14743638	      0.38200751	      0.96327641	      0.21098372	     22.70379710	     -3.72841147	      3.30162423	     92.84651051	     92.84651051	     -9.18247695	    -19.09096249	      0.00000000	     38.85018187	      8.98197840	     -1.23540433	     46.85283883	     46.85283883	     13.98576475	    -13.70862352	      0.00000000	     -1.66867115	     -8.36899765	     -3.81938531
     84.45423775	    -14.34313482	      4.92274865	      4.23806066	      0.37995719	      0.96027170	      0.21070003	     25.96942634	     -4.23766985	      4.93361077	     95.19894664	     95.19894664	     -7.99870513	    -17.89309825	      0.00000000	     37.58788567	      9.25360530	     -1.90645209	     47.59937950	     47.59937950	     15.98060193	    -13.81409939	      0.00000000	     -1.64388647	     -9.06511201	     -4.09524596
     84.46423775	    -14.49639781	      5.22480304	      3.36537799	      0.37812058	      0.95836787	      0.21045786	     29.20518172	     -4.18687870	      6.36252023	     96.86920521	     96.86920521	     -6.74775519	    -16.66562975	      0.00000000	     36.18767239	      9.22165540	     -2.25103128	     48.05043971	     48.05043971	     17.71182597	    -13.86143698	      0.00000000	     -1.49809401	     -9.24955443	     -4.54486382
